<?xml version="1.0" encoding="UTF-8"?>
<svg width="47px" height="51px" viewBox="0 0 47 51" version="1.1" xmlns="http://www.w3.org/2000/svg" xmlns:xlink="http://www.w3.org/1999/xlink">
    <!-- Generator: Sketch 52 (66869) - http://www.bohemiancoding.com/sketch -->
    <title>2</title>
    <desc>Created with Sketch.</desc>
    <g id="Page-1" stroke="none" stroke-width="1" fill="none" fill-rule="evenodd">
        <path d="M22.9589764,10.2153358 C22.8039723,10.2674574 22.6752991,10.346141 22.5724599,10.4493819 C22.4174559,10.6052456 22.3136231,10.7616104 22.2634455,10.9169729 C22.2112807,11.0733378 22.1854467,11.2557634 22.1854467,11.4632476 C22.1854467,11.6191113 22.2112807,11.7749749 22.2634455,11.9313398 C22.3136231,12.0867023 22.4174559,12.2430672 22.5724599,12.3989308 C22.6752991,12.5036752 22.8039723,12.5938857 22.9589764,12.671567 C23.1134836,12.7497494 23.2938248,12.7888406 23.5,12.7888406 C23.6545072,12.7888406 23.8090144,12.7497494 23.9635216,12.671567 C24.1185256,12.5938857 24.2730329,12.5036752 24.4275401,12.3989308 C24.5303793,12.2951888 24.6212951,12.1528567 24.6983003,11.9699298 C24.7753055,11.7880053 24.8140565,11.6191113 24.8140565,11.4632476 C24.8140565,11.2557634 24.7753055,11.0733378 24.6983003,10.9169729 C24.6212951,10.7616104 24.5303793,10.6052456 24.4275401,10.4493819 C24.2730329,10.346141 24.1185256,10.2674574 23.9635216,10.2153358 C23.8090144,10.1642165 23.6545072,10.1371534 23.5,10.1371534 C23.2938248,10.1371534 23.1134836,10.1642165 22.9589764,10.2153358 Z M22.4562069,8.96792516 C22.7910553,8.81156031 23.1388208,8.73387905 23.5,8.73387905 C23.8596888,8.73387905 24.1955308,8.81156031 24.5045453,8.96792516 C24.8140565,9.12378884 25.0967401,9.3062145 25.3550801,9.51319746 C25.5602617,9.77430672 25.7420934,10.0594721 25.8961038,10.3711995 C26.0511078,10.6829268 26.128113,11.0477781 26.128113,11.4632476 C26.128113,11.7749749 26.0511078,12.1002339 25.8961038,12.4375209 C25.7420934,12.7763114 25.5602617,13.0750084 25.3550801,13.3346141 C25.0967401,13.5425994 24.8140565,13.7245239 24.5045453,13.8803876 C24.1955308,14.0367524 23.8596888,14.1144337 23.5,14.1144337 C23.1388208,14.1144337 22.7910553,14.0367524 22.4562069,13.8803876 C22.1208617,13.7245239 21.8247643,13.5425994 21.5674179,13.3346141 C21.3607458,13.0750084 21.1809014,12.7888406 21.0258974,12.4766121 C20.871887,12.1648847 20.794385,11.8275977 20.794385,11.4632476 C20.794385,11.0477781 20.871887,10.6829268 21.0258974,10.3711995 C21.1809014,10.0594721 21.3607458,9.77430672 21.5674179,9.51319746 C21.8247643,9.3062145 22.1208617,9.12378884 22.4562069,8.96792516 Z M9.04438502,13.1396592 C11.3118156,13.7906782 13.4242421,14.3755429 15.383155,14.8942533 C17.3410744,15.4144671 19.0416473,15.8434681 20.4853706,16.1807551 C21.9276035,16.5195456 22.9321487,16.6879385 23.5,16.6879385 C24.2213648,16.6879385 25.6129233,16.4418644 27.6741787,15.946709 C29.7349372,15.4535583 32.1062006,14.843134 34.7864784,14.1144337 C36.3832185,13.6463415 38.033117,13.1662212 39.7336899,12.671567 C41.4342628,12.1784163 43.1348357,11.6712329 44.8354087,11.151019 L44.8354087,2.10541263 L2.16459135,2.10541263 L2.16459135,11.151019 C4.48368991,11.8275977 6.77596085,12.4901437 9.04438502,13.1396592 Z M40.0044501,14.8160708 C38.3808824,15.284163 36.8214029,15.7266956 35.327502,16.1421651 C32.544385,16.9219846 30.0702824,17.5589709 27.9061879,18.0521216 C25.7420934,18.547277 24.2730329,18.7933512 23.5,18.7933512 C22.8814744,18.7933512 21.8501015,18.6369863 20.4078686,18.3252589 C18.9646421,18.0135316 17.2769862,17.5980621 15.3449008,17.0778483 C13.4113251,16.5586368 11.2984018,15.9737721 9.00563401,15.3232543 C6.71187265,14.6737387 4.43152509,14.0106916 2.16459135,13.3346141 C2.21526574,17.3895757 2.24159655,21.4580688 2.24159655,25.53859 C2.24159655,29.6201136 2.21526574,33.6881056 2.16459135,37.7430672 L2.16459135,37.9766121 C2.16459135,38.1329769 2.13776373,38.1986301 2.08708934,38.171567 C2.03542134,38.1460074 2.03542134,38.1595389 2.08708934,38.2106582 C2.08708934,38.263281 2.09901273,38.2883395 2.12584035,38.2883395 C2.15117754,38.2883395 2.21526574,38.3154026 2.31909856,38.3670231 C2.42193776,38.4191447 2.52428016,38.4717675 2.62811298,38.5223856 C2.73095218,38.5750084 2.86012219,38.62713 3.0146294,38.6787504 C3.73599425,39.0952222 4.17417868,39.3412964 4.32868589,39.4194788 C4.48368991,39.49716 4.6113695,39.5628132 4.71520232,39.6144337 C6.20960002,40.4463749 7.93551013,41.3960909 9.89442307,42.4610758 C11.8528392,43.5270631 13.7720075,44.5273973 15.6539153,45.4630805 C17.5343326,46.3987638 19.1966513,47.2051453 20.6398778,47.8802205 C22.0816139,48.5567992 23.0359816,48.8940862 23.5,48.8940862 C23.8596888,48.8940862 24.6461355,48.6344805 25.8578496,48.1142666 C27.0680732,47.5955563 28.4730455,46.9445373 30.0702824,46.1647177 C32.4405522,44.9694287 34.9404888,43.6693953 37.5690986,42.2656198 C40.1972115,40.8618443 42.3101349,39.6921149 43.9078686,38.7564317 L43.9848738,38.6787504 C44.242717,38.5223856 44.4488922,38.4056131 44.6033994,38.3279318 C44.7584035,38.2497494 44.8612427,38.2106582 44.9124139,38.2106582 C44.9124139,38.1595389 44.8994969,38.1069161 44.8741597,38.0547945 C44.8478288,38.0036752 44.8354087,37.87287 44.8354087,37.6648847 L44.8354087,13.4127965 C43.2376749,13.8803876 41.627521,14.3484798 40.0044501,14.8160708 Z M47,0 L47,1.09154694 C47,2.33945874 47,4.14617441 47,6.51119278 C47,8.87771467 46.9865862,11.6326428 46.961249,14.7769796 C46.9349182,17.9233211 46.922498,21.3277648 46.922498,24.9928166 C46.922498,28.6583695 46.922498,32.3620114 46.922498,36.1052456 L46.922498,37.6648847 C46.922498,38.0813565 46.909581,38.4056131 46.8842438,38.6396592 C46.8574162,38.8732041 46.7679908,39.121283 46.6134836,39.3803876 C46.4589764,39.588874 46.2657182,39.7702974 46.0337089,39.926161 C45.8016997,40.0820247 45.4792715,40.2910124 45.0674179,40.5501169 L44.9124139,40.6277982 C43.366845,41.5128633 41.252928,42.6825927 38.5741406,44.1369863 C35.8938628,45.5933846 33.3427551,46.893418 30.9208173,48.0365854 C29.2207412,48.9206482 27.7000127,49.6348146 26.3601222,50.1810892 C25.0192381,50.7268627 24.0663608,51 23.5,51 C22.9321487,51 21.8635153,50.6622118 20.2921124,49.9856331 C18.7197159,49.3110591 16.9679718,48.4786168 15.0353896,47.4908119 C13.1028075,46.5035082 11.1180605,45.4630805 9.08313602,44.3710324 C7.04672107,43.2794855 5.25622595,42.3177414 3.71065705,41.4858002 C3.1428058,41.1740728 2.76920638,40.9791179 2.58985878,40.9009355 C2.40852395,40.8232543 2.21526574,40.7064818 2.00958733,40.5501169 C1.85508012,40.4989977 1.73932392,40.4463749 1.66231872,40.3942533 C1.58481671,40.343134 1.4943977,40.3160708 1.3915585,40.3160708 C1.13272166,40.1602072 0.927540062,40.0309054 0.773032853,39.926161 C0.618028836,39.8229201 0.464018435,39.6921149 0.309014418,39.5367524 C0.154507209,39.2766455 0.0640881992,39.0425994 0.0387510042,38.8346141 C0.0119233859,38.62713 0,38.3154026 0,37.8989308 L0,37.6648847 C0.102839203,33.609422 0.154507209,29.5424323 0.154507209,25.4609088 C0.154507209,21.3798864 0.128176398,17.2858336 0.0770052006,13.1787504 C0.0770052006,10.9951554 0.0640881992,8.85065152 0.0387510042,6.74523889 C0.0119233859,4.63982626 0,2.7559305 0,1.09154694 L0,0 L47,0 Z" id="2" fill="#000000"></path>
    </g>
</svg>