<?xml version="1.0" encoding="UTF-8"?>
<svg width="110px" height="49px" viewBox="0 0 110 49" version="1.1" xmlns="http://www.w3.org/2000/svg" xmlns:xlink="http://www.w3.org/1999/xlink">
    <!-- Generator: Sketch 52 (66869) - http://www.bohemiancoding.com/sketch -->
    <title>3</title>
    <desc>Created with Sketch.</desc>
    <g id="Page-1" stroke="none" stroke-width="1" fill="none" fill-rule="evenodd">
        <g id="3" fill="#000000">
            <path d="M21.9819986,9.81473438 C21.8340662,9.86481201 21.7103928,9.93992846 21.6119297,10.0396022 C21.4635216,10.1893536 21.3641072,10.3395865 21.3160649,10.4888564 C21.2661198,10.6390892 21.2413851,10.814361 21.2413851,11.0137085 C21.2413851,11.1634598 21.2661198,11.3132112 21.3160649,11.4634441 C21.3641072,11.612714 21.4635216,11.7629469 21.6119297,11.9126983 C21.7103928,12.013335 21.8340662,12.1000079 21.9819986,12.1746428 C22.1299311,12.2497592 22.3025982,12.286836 22.5,12.286836 C22.6479324,12.286836 22.7958649,12.2497592 22.944273,12.1746428 C23.0922054,12.1000079 23.2401378,12.013335 23.3880703,11.9126983 C23.4865333,11.8130245 23.5735804,11.6762741 23.6473088,11.5005208 C23.7210372,11.3257306 23.7581392,11.1634598 23.7581392,11.0137085 C23.7581392,10.814361 23.7210372,10.6390892 23.6473088,10.4888564 C23.5735804,10.3395865 23.4865333,10.1893536 23.3880703,10.0396022 C23.2401378,9.93992846 23.0922054,9.86481201 22.944273,9.81473438 C22.7958649,9.76561978 22.6479324,9.73961793 22.5,9.73961793 C22.3025982,9.73961793 22.1299311,9.76561978 21.9819986,9.81473438 Z M21.5006237,8.6157603 C21.8212232,8.46600892 22.1541901,8.39137399 22.5,8.39137399 C22.8448586,8.39137399 23.1659338,8.46600892 23.4617987,8.6157603 C23.7581392,8.7659932 24.0287937,8.94126491 24.2761405,9.14013089 C24.472591,9.39100057 24.6466851,9.664983 24.7941419,9.96448576 C24.94255,10.2639885 25.0162784,10.6145319 25.0162784,11.0137085 C25.0162784,11.3132112 24.94255,11.6257149 24.7941419,11.949775 C24.6466851,12.2752796 24.472591,12.5622629 24.2761405,12.8116881 C24.0287937,13.0115171 23.7581392,13.1863073 23.4617987,13.3360586 C23.1659338,13.4862915 22.8448586,13.5609265 22.5,13.5609265 C22.1541901,13.5609265 21.8212232,13.4862915 21.5006237,13.3360586 C21.1795484,13.1863073 20.8960509,13.0115171 20.6496554,12.8116881 C20.4517779,12.5622629 20.2795865,12.286836 20.1311784,11.9873332 C19.9837216,11.6878304 19.9095176,11.3637704 19.9095176,11.0137085 C19.9095176,10.6145319 19.9837216,10.2639885 20.1311784,9.96448576 C20.2795865,9.664983 20.4517779,9.39100057 20.6496554,9.14013089 C20.8960509,8.94126491 21.1795484,8.7659932 21.5006237,8.6157603 Z M8.65951757,12.6243785 C10.8304617,13.2498673 12.8529978,13.8117962 14.7285527,14.3101649 C16.6031563,14.8099782 18.2313644,15.2221556 19.6136527,15.5462157 C20.994514,15.8717203 21.9563126,16.0335096 22.5,16.0335096 C23.1906685,16.0335096 24.5230117,15.7970854 26.4965541,15.3213479 C28.4696207,14.8475364 30.7404549,14.2610503 33.3062027,13.5609265 C34.8349964,13.1111908 36.4146865,12.6498988 38.0428946,12.1746428 C39.6711027,11.7008314 41.2997865,11.2135375 42.9279946,10.7137242 L42.9279946,2.02284743 L2.07248108,2.02284743 L2.07248108,10.7137242 C4.29289459,11.3637704 6.48762209,12.0003341 8.65951757,12.6243785 Z M38.3021331,14.2350484 C36.748129,14.6847841 35.2550104,15.1099625 33.8242041,15.509139 C31.1595176,16.2583774 28.7911716,16.8703838 26.7186905,17.3441953 C24.6466851,17.8199328 23.2401378,18.056357 22.5,18.056357 C21.9077946,18.056357 20.9203099,17.9061241 19.5394486,17.6066213 C18.157636,17.3071186 16.5422709,16.9079421 14.6919263,16.4081288 C12.8411061,15.9092785 10.8176187,15.3473497 8.62241554,14.7223423 C6.42626105,14.098298 4.24294956,13.4612527 2.07248108,12.8116881 C2.12099911,16.7076315 2.14620946,20.6165759 2.14620946,24.5370767 C2.14620946,28.4585405 2.12099911,32.3670034 2.07248108,36.2624654 L2.07248108,36.4873332 C2.07248108,36.6375661 2.04679506,36.7006446 1.99827703,36.6746428 C1.94880766,36.6500855 1.94880766,36.6630864 1.99827703,36.712201 C1.99827703,36.7627602 2.00969304,36.786836 2.03537905,36.786836 C2.05963807,36.786836 2.12099911,36.8128378 2.22041351,36.8624339 C2.31887658,36.9125115 2.41686398,36.9630707 2.51627838,37.0117038 C2.61474145,37.0622629 2.73841487,37.1123406 2.88682297,37.1619367 C3.57701577,37.5620762 3.99702972,37.7985004 4.14448649,37.8736169 C4.29289459,37.9482518 4.41514101,38.0113304 4.51455541,38.0609265 C5.94536172,38.8602425 7.59782884,39.7727148 9.47338379,40.7959356 C11.3484631,41.819638 13.1859647,42.7812248 14.9877912,43.6802146 C16.7881908,44.5792044 18.3797725,45.3539632 19.7615851,46.0025648 C21.1419707,46.652611 22.055727,46.9766711 22.5,46.9766711 C22.8448586,46.9766711 23.5978394,46.7272459 24.7575155,46.2274326 C25.916716,45.7290639 27.2614266,45.103575 28.7911716,44.3543366 C31.0601032,43.2059217 33.4541351,41.95687 35.9708892,40.6081445 C38.4871676,39.259419 40.5101793,38.1355614 42.0399243,37.2365716 L42.1136527,37.1619367 C42.3600482,37.0117038 42.55745,36.8995106 42.7058581,36.8243942 C42.8537905,36.7497592 42.9522536,36.712201 43.001723,36.712201 C43.001723,36.6630864 42.9893556,36.6125273 42.9650966,36.5624496 C42.9394106,36.513335 42.9279946,36.3876594 42.9279946,36.1878304 L42.9279946,12.8868045 C41.3982495,13.3360586 39.8566128,13.7857943 38.3021331,14.2350484 Z M45,0 L45,1.04874118 C45,2.24771526 45,3.98357933 45,6.25585189 C45,8.52956899 44.9876327,11.1764608 44.9633736,14.1974902 C44.9376876,17.2204457 44.9262716,20.4913819 44.9262716,24.0127061 C44.9262716,27.5345119 44.9262716,31.0929129 44.9262716,34.6893536 L44.9262716,36.1878304 C44.9262716,36.58797 44.9139043,36.8995106 44.8896453,37.1243785 C44.8634836,37.3487648 44.7778635,37.5866335 44.6304067,37.8360586 C44.481523,38.0363692 44.2969642,38.2106779 44.0753034,38.3604292 C43.8531669,38.5101806 43.544459,38.7104911 43.1501311,38.9599163 L43.001723,39.0345512 C41.521923,39.8849079 39.4979599,41.0087656 36.9326878,42.4061241 C34.3669401,43.8054087 31.9243901,45.0544604 29.6050378,46.1527977 C27.9773054,47.0021914 26.5212887,47.6883513 25.2384149,48.2132034 C23.9550653,48.7375739 23.042736,49 22.5,49 C21.9563126,49 20.9331529,48.6754584 19.4286182,48.0254122 C17.9231322,47.3772921 16.2459304,46.5774945 14.3955858,45.6284271 C12.5452412,44.6798412 10.6449516,43.6802146 8.69661959,42.6309919 C6.7468606,41.5822507 5.03255676,40.6582221 3.55275675,39.8589061 C3.00906938,39.5594033 2.65136781,39.3720937 2.47965202,39.2969773 C2.30603357,39.2223423 2.12099911,39.1101492 1.92407298,38.9599163 C1.77661621,38.9108017 1.66531013,38.8602425 1.59158175,38.8101649 C1.5173777,38.7610503 1.43080631,38.7350484 1.33234324,38.7350484 C1.08452074,38.5852971 0.888070272,38.461066 0.740137838,38.3604292 C0.591729737,38.261237 0.444272969,38.1355614 0.295864868,37.9862915 C0.147932434,37.7363849 0.0613610418,37.5115171 0.0371020253,37.3116881 C0.0114160078,37.1123406 0,36.8128378 0,36.4126983 L0,36.1878304 C0.0984630671,32.2914054 0.147932434,28.3839056 0.147932434,24.4624418 C0.147932434,20.5414595 0.122722084,16.6079578 0.0737283836,12.6619367 C0.0737283836,10.5639728 0.0613610418,8.50356715 0.0371020253,6.48071972 C0.0114160078,4.45787229 0,2.6478548 0,1.04874118 L0,0 L45,0 Z" id="Fill-1"></path>
            <path d="M86.982231,9.81473438 C86.8338213,9.86481201 86.7101466,9.93992846 86.6116825,10.0396022 C86.4637485,10.1893536 86.3643331,10.3395865 86.3158145,10.4888564 C86.2663446,10.6390892 86.2416097,10.814361 86.2416097,11.0137085 C86.2416097,11.1634598 86.2663446,11.3132112 86.3158145,11.4634441 C86.3643331,11.612714 86.4637485,11.7629469 86.6116825,11.9126983 C86.7101466,12.013335 86.8338213,12.1000079 86.982231,12.1746428 C87.1296893,12.2497592 87.3028339,12.286836 87.5002378,12.286836 C87.6481718,12.286836 87.7961058,12.2497592 87.9440398,12.1746428 C88.0924495,12.1000079 88.2399078,12.013335 88.3883175,11.9126983 C88.4867816,11.8130245 88.5733539,11.6762741 88.6475587,11.5005208 C88.7212879,11.3257306 88.7583903,11.1634598 88.7583903,11.0137085 C88.7583903,10.814361 88.7212879,10.6390892 88.6475587,10.4888564 C88.5733539,10.3395865 88.4867816,10.1893536 88.3883175,10.0396022 C88.2399078,9.93992846 88.0924495,9.86481201 87.9440398,9.81473438 C87.7961058,9.76561978 87.6481718,9.73961793 87.5002378,9.73961793 C87.3028339,9.73961793 87.1296893,9.76561978 86.982231,9.81473438 Z M86.5008509,8.6157603 C86.8214539,8.46600892 87.1544243,8.39137399 87.5002378,8.39137399 C87.8446244,8.39137399 88.1661787,8.46600892 88.4620467,8.6157603 C88.7583903,8.7659932 89.028572,8.94126491 89.2763972,9.14013089 C89.4728497,9.39100057 89.64647,9.664983 89.794404,9.96448576 C89.942338,10.2639885 90.0165428,10.6145319 90.0165428,11.0137085 C90.0165428,11.3132112 89.942338,11.6257149 89.794404,11.949775 C89.64647,12.2752796 89.4728497,12.5622629 89.2763972,12.8116881 C89.028572,13.0115171 88.7583903,13.1863073 88.4620467,13.3360586 C88.1661787,13.4862915 87.8446244,13.5609265 87.5002378,13.5609265 C87.1544243,13.5609265 86.8214539,13.4862915 86.5008509,13.3360586 C86.1792966,13.1863073 85.8957961,13.0115171 85.6498737,12.8116881 C85.4519941,12.5622629 85.2798009,12.286836 85.1313912,11.9873332 C84.9839329,11.6878304 84.9092523,11.3637704 84.9092523,11.0137085 C84.9092523,10.6145319 84.9839329,10.2639885 85.1313912,9.96448576 C85.2798009,9.664983 85.4519941,9.39100057 85.6498737,9.14013089 C85.8957961,8.94126491 86.1792966,8.7659932 86.5008509,8.6157603 Z M73.6596091,12.6243785 C75.8301005,13.2498673 77.8526579,13.8117962 79.7287084,14.3101649 C81.6033318,14.8099782 83.2315571,15.2221556 84.6133844,15.5462157 C85.9947359,15.8717203 86.9565447,16.0335096 87.5002378,16.0335096 C88.1909136,16.0335096 89.5227953,15.7970854 91.4968341,15.3213479 C93.469446,14.8475364 95.7403042,14.2610503 98.3060791,13.5609265 C99.834889,13.1111908 101.414596,12.6498988 103.042821,12.1746428 C104.671046,11.7008314 106.299272,11.2135375 107.927973,10.7137242 L107.927973,2.02284743 L67.0720273,2.02284743 L67.0720273,10.7137242 C69.2924643,11.3637704 71.487215,12.0003341 73.6596091,12.6243785 Z M103.302062,14.2350484 C101.748042,14.6847841 100.254907,15.1099625 98.8240859,15.509139 C96.1598469,16.2583774 93.7910003,16.8703838 91.718973,17.3441953 C89.64647,17.8199328 88.2399078,18.056357 87.5002378,18.056357 C86.9075505,18.056357 85.9200554,17.9061241 84.5396552,17.6066213 C83.157828,17.3071186 81.5419701,16.9079421 79.6920816,16.4081288 C77.8412418,15.9092785 75.8177331,15.3473497 73.6225067,14.7223423 C71.426329,14.098298 69.2429944,13.4612527 67.0720273,12.8116881 C67.1210215,16.7076315 67.1462321,20.6165759 67.1462321,24.5370767 C67.1462321,28.4585405 67.1210215,32.3670034 67.0720273,36.2624654 L67.0720273,36.4873332 C67.0720273,36.6375661 67.0468167,36.7006446 66.9982982,36.6746428 C66.9483526,36.6500855 66.9483526,36.6630864 66.9982982,36.712201 C66.9982982,36.7627602 67.0092386,36.786836 67.0354006,36.786836 C67.0596598,36.786836 67.1210215,36.8128378 67.220437,36.8624339 C67.3189011,36.9125115 67.4168895,36.9630707 67.516305,37.0117038 C67.6147691,37.0622629 67.7384438,37.1123406 67.8863778,37.1619367 C68.5765779,37.5620762 68.9965963,37.7985004 69.1445303,37.8736169 C69.2924643,37.9482518 69.4151877,38.0113304 69.5146031,38.0609265 C70.9454246,38.8602425 72.5974335,39.7727148 74.4734839,40.7959356 C76.3481074,41.819638 78.186104,42.7812248 79.9879496,43.6802146 C81.7883682,44.5792044 83.3794911,45.3539632 84.761794,46.0025648 C86.1421942,46.652611 87.0559602,46.9766711 87.5002378,46.9766711 C87.8446244,46.9766711 88.5976132,46.7272459 89.7577772,46.2274326 C90.9165143,45.7290639 92.2612391,45.103575 93.7910003,44.3543366 C96.0604315,43.2059217 98.4540131,41.95687 100.970794,40.6081445 C103.487099,39.259419 105.509656,38.1355614 107.039417,37.2365716 L107.113147,37.1619367 C107.360496,37.0117038 107.5579,36.8995106 107.705834,36.8243942 C107.854244,36.7497592 107.952708,36.712201 108.001702,36.712201 C108.001702,36.6630864 107.989334,36.6125273 107.965075,36.5624496 C107.939389,36.513335 107.927973,36.3876594 107.927973,36.1878304 L107.927973,12.8868045 C106.397736,13.3360586 104.856558,13.7857943 103.302062,14.2350484 Z M110,0 L110,1.04874118 C110,2.24771526 110,3.98357933 110,6.25585189 C110,8.52956899 109.987633,11.1764608 109.963373,14.1974902 C109.937687,17.2204457 109.926271,20.4913819 109.926271,24.0127061 C109.926271,27.5345119 109.926271,31.0929129 109.926271,34.6893536 L109.926271,36.1878304 C109.926271,36.58797 109.913903,36.8995106 109.889644,37.1243785 C109.863482,37.3487648 109.778337,37.5866335 109.630403,37.8360586 C109.481993,38.0363692 109.297432,38.2106779 109.075294,38.3604292 C108.853155,38.5101806 108.544444,38.7104911 108.150112,38.9599163 L108.001702,39.0345512 C106.521886,39.8849079 104.497902,41.0087656 101.932603,42.4061241 C99.3668277,43.8054087 96.9242519,45.0544604 94.6053508,46.1527977 C92.9771255,47.0021914 91.5215691,47.6883513 90.238206,48.2132034 C88.9548429,48.7375739 88.0425039,49 87.5002378,49 C86.9565447,49 85.9333742,48.6754584 84.4288236,48.0254122 C82.922846,47.3772921 81.2461021,46.5774945 79.3952623,45.6284271 C77.5453738,44.6798412 75.6450641,43.6802146 73.6967115,42.6309919 C71.7464562,41.5822507 70.03261,40.6582221 68.5527943,39.8589061 C68.0091012,39.5594033 67.6513958,39.3720937 67.4796782,39.2969773 C67.3055823,39.2223423 67.1210215,39.1101492 66.9240933,38.9599163 C66.7761593,38.9108017 66.6653277,38.8602425 66.5915986,38.8101649 C66.5169181,38.7610503 66.4308214,38.7350484 66.3323573,38.7350484 C66.0845322,38.5852971 65.8880797,38.461066 65.73967,38.3604292 C65.591736,38.261237 65.443802,38.1355614 65.295868,37.9862915 C65.1474583,37.7363849 65.0613617,37.5115171 65.0371024,37.3116881 C65.0109405,37.1123406 65,36.8128378 65,36.4126983 L65,36.1878304 C65.0984641,32.2914054 65.1474583,28.3839056 65.1474583,24.4624418 C65.1474583,20.5414595 65.1227234,16.6079578 65.0737292,12.6619367 C65.0737292,10.5639728 65.0613617,8.50356715 65.0371024,6.48071972 C65.0109405,4.45787229 65,2.6478548 65,1.04874118 L65,0 L110,0 Z" id="Fill-2"></path>
        </g>
    </g>
</svg>