<svg width="72px" height="55px" id="Group_480" data-name="Group 480" xmlns="http://www.w3.org/2000/svg" viewBox="0 0 39.892 39.892">
  <path id="Path_74" data-name="Path 74" d="M19.946,0A19.946,19.946,0,1,0,39.892,19.946,19.969,19.969,0,0,0,19.946,0Zm0,34.905A14.977,14.977,0,0,1,4.986,19.946a14.767,14.767,0,0,1,2.769-8.664L28.61,32.136A14.767,14.767,0,0,1,19.946,34.905Zm12.19-6.3L11.282,7.756a14.767,14.767,0,0,1,8.664-2.769A14.977,14.977,0,0,1,34.905,19.946,14.767,14.767,0,0,1,32.136,28.61Z"/>
</svg>
