<!-- Generated by IcoMoon.io -->
<svg version="1.1" xmlns="http://www.w3.org/2000/svg" width="96" height="96" viewBox="0 0 96 96">
<title>collars-the-spread</title>
<path d="M19.237 29.276c-0.008-0.092-0.008-0.191-0.008-0.291 0-6.741 25.381-8.195 29.169-8.195 2.556 0 13.352 0.559 20.867 2.617 4.461 1.217 7.805 3 7.805 5.578 0 0.199-0.015 0.413-0.046 0.62 0.237 0.872 0.474 1.944 0.849 3.275 1.025 3.681 2.724 9.442 2.273 12.993-1.025 4.92-1.974 16.107-2.647 18.242-4.354-2.288-8.754-4.515-12.748-6.489l-0.321 0.161c-5.15 2.602-10.774 3.895-16.39 3.887s-11.225-1.316-16.375-3.933l-0.321-0.161c-4.017 1.982-8.455 4.231-12.84 6.535-0.673-2.135-1.622-13.322-2.648-18.242-0.452-3.55 1.247-9.312 2.273-12.993 0.406-1.439 0.75-2.64 1.11-3.604zM32.972 57.312c4.767 2.265 9.917 3.397 15.066 3.405 5.157 0.008 10.307-1.11 15.082-3.359-3-1.469-5.724-2.77-7.958-3.811-2.472-1.148-4.339-1.974-5.295-2.334-1.331 0.275-2.326 0.252-3.658-0.031-0.934 0.352-2.816 1.178-5.333 2.349-2.219 1.025-4.928 2.326-7.904 3.78zM25.427 38.42c16.696 15.962 28.518 15.334 45.146-0.237-3.948-0.658-7.843-1.148-11.256-1.5-4.882-0.497-8.807-0.719-10.521-0.719-1.699 0-6.014 0.245-11.401 0.819-3.65 0.383-7.797 0.926-11.967 1.638zM69.012 24.325c-7.407-2.028-18.089-2.579-20.614-2.579-3.658 0-28.205 1.285-28.205 7.239 0 1.209 0.459 2.54 1.27 3.918 0.88 1.5 2.158 3.053 3.696 4.591 4.216-0.727 8.425-1.27 12.136-1.668 5.441-0.574 9.794-0.819 11.501-0.819 1.729 0 5.685 0.214 10.621 0.727 3.474 0.352 7.43 0.849 11.432 1.523 1.622-1.584 2.977-3.153 3.91-4.622 0.857-1.347 1.347-2.586 1.347-3.65 0-2.035-3.038-3.551-7.093-4.66zM48 53.808c0.566 0 1.087 0.23 1.454 0.605v0c0.375 0.375 0.604 0.888 0.604 1.454s-0.23 1.079-0.604 1.454v0c-0.375 0.375-0.888 0.605-1.454 0.605s-1.079-0.23-1.454-0.605v0c-0.375-0.375-0.605-0.888-0.605-1.454s0.23-1.079 0.605-1.454v0c0.375-0.375 0.888-0.605 1.454-0.605zM48.78 55.086v0.008c-0.199-0.199-0.474-0.321-0.78-0.321s-0.574 0.122-0.773 0.321v-0.008c-0.199 0.199-0.321 0.474-0.321 0.78s0.122 0.582 0.314 0.78h0.008c0.199 0.199 0.467 0.321 0.773 0.321s0.582-0.122 0.78-0.321v0c0.199-0.199 0.321-0.474 0.321-0.78s-0.122-0.582-0.321-0.78z"></path>
</svg>
