<!-- Generated by IcoMoon.io -->
<svg version="1.1" xmlns="http://www.w3.org/2000/svg" width="96" height="96" viewBox="0 0 96 96">
<title>collars-price-charlie</title>
<path d="M18.472 29.682c-0.076-0.367-0.115-0.735-0.115-1.087 0-2.456 3.482-4.147 8.126-5.303 7.92-1.966 19.321-2.502 21.769-2.502 2.625 0 13.689 0.528 21.395 2.479 4.568 1.155 7.996 2.854 7.996 5.326 0 0.329-0.038 0.673-0.122 1.025l3.068 13.988c0 0 0.252 0.888-0.497 1.898s-14.982 21.333-21.724 28.404c0 0-1.125 0.888-1.752-1.89-0.321-1.431-0.444-6.083-1.331-11.065-2.395 0.474-4.836 0.719-7.285 0.719-2.441 0-4.882-0.23-7.285-0.704-0.888 4.974-1.010 9.626-1.331 11.049-0.62 2.778-1.745 1.89-1.745 1.89-6.749-7.070-20.981-27.394-21.731-28.404s-0.497-1.898-0.497-1.898l3.061-13.926zM41.373 60.121c2.188 0.398 4.415 0.597 6.627 0.597s4.43-0.207 6.627-0.62c-0.413-2.012-0.972-4.048-1.752-5.884-0.788-1.882-1.798-3.558-3.114-4.813-0.283 0.046-0.559 0.092-0.819 0.115-0.337 0.038-0.65 0.061-0.941 0.061-0.283 0-0.597-0.015-0.941-0.054-0.268-0.023-0.543-0.061-0.834-0.115-1.308 1.255-2.319 2.938-3.107 4.821-0.773 1.844-1.331 3.879-1.745 5.892zM45.888 48.421l0.038-0.031 0.23 0.038c0.352 0.061 0.681 0.107 0.995 0.145 0.291 0.023 0.574 0.038 0.849 0.038 0.268 0 0.543-0.015 0.834-0.046 0.306-0.031 0.635-0.084 0.987-0.153l0.23-0.046 0.038 0.031c5.058-1.102 13.551-5.548 19.665-10.33-3.841-0.62-7.598-1.087-10.889-1.416-4.744-0.482-8.532-0.689-10.215-0.689-1.668 0-5.854 0.237-11.103 0.788-3.528 0.367-7.552 0.88-11.616 1.561 6.114 4.836 14.791 9.067 19.956 10.108zM69.41 24.203c-7.606-1.928-18.563-2.456-21.157-2.456-2.426 0-13.72 0.528-21.54 2.479-4.224 1.048-7.399 2.472-7.399 4.369 0 1.255 0.582 2.632 1.576 4.055 1.11 1.569 2.716 3.191 4.622 4.759 4.163-0.704 8.302-1.232 11.937-1.615 5.303-0.551 9.526-0.788 11.202-0.788 1.691 0 5.509 0.207 10.307 0.689 3.397 0.344 7.277 0.826 11.225 1.469 1.989-1.615 3.681-3.252 4.851-4.798 1.041-1.385 1.653-2.678 1.653-3.772 0-1.913-3.122-3.344-7.277-4.392zM48 53.808c0.566 0 1.087 0.23 1.454 0.605v0c0.375 0.375 0.604 0.888 0.604 1.454s-0.23 1.079-0.604 1.454v0c-0.375 0.375-0.888 0.605-1.454 0.605s-1.079-0.23-1.454-0.605v0c-0.375-0.375-0.605-0.888-0.605-1.454s0.23-1.079 0.605-1.454v0c0.375-0.375 0.888-0.605 1.454-0.605zM48.78 55.093v0c-0.199-0.199-0.474-0.321-0.78-0.321-0.298 0-0.574 0.122-0.773 0.321v0c-0.199 0.191-0.321 0.467-0.321 0.773s0.122 0.582 0.314 0.78h0.008c0.199 0.199 0.467 0.321 0.773 0.321s0.582-0.122 0.78-0.321v0c0.199-0.199 0.321-0.474 0.321-0.78s-0.122-0.582-0.321-0.773z"></path>
</svg>
