<!-- Generated by IcoMoon.io -->
<svg version="1.1" xmlns="http://www.w3.org/2000/svg" width="96" height="96" viewBox="0 0 96 96">
<title>collars-the-madmen</title>
<path d="M18.304 30.962c1.423-3.972 1.758-5.034 6.044-6.745 11.962-4.777 40.883-4.186 49.973 1.12 2.433 1.423 2.59 2.758 3.511 5.343 2.58 7.232 3.909 21.439 3.909 25.52-3.815 0.544-8.723 0.162-13.495-0.623-0.026 0.136-0.099 0.256-0.225 0.33-12.564 7.608-27.106 7.645-39.696 0.073v0c-0.115-0.068-0.199-0.183-0.225-0.324v0c-4.882 0.869-9.932 1.313-13.841 0.754 0-4.050 1.439-18.142 4.045-25.447zM29.905 55.797c11.679 6.557 24.84 6.536 36.498-0.052-3.537-0.638-6.85-1.397-9.518-2.114-3.082-0.832-5.353-1.633-6.175-2.172-2.041 0.565-3.391 0.502-5.416-0.052-0.869 0.612-2.883 1.308-5.248 1.978-3.501 0.989-7.818 1.936-10.141 2.412zM43.845 50.004c2.679 0.921 4.783 1.204 7.598 0.283 5.39-1.769 13.584-6.902 19.147-12.109-17.053-2.831-28.053-2.695-45.143 0.246 4.61 4.406 11.993 9.382 18.398 11.58zM25.18 37.493c17.278-2.977 28.445-3.114 45.687-0.241l0.298-0.293 0.126-0.126c3.407-3.422 7.336-7.823 2.585-10.649-9.403-5.599-42.757-5.787-51.741 0.209-4.505 3.009 0.419 8.477 3.045 11.099zM48 53.808c0.57 0 1.083 0.23 1.455 0.602v0c0.372 0.377 0.602 0.89 0.602 1.455s-0.23 1.083-0.602 1.455v0c-0.377 0.372-0.89 0.602-1.455 0.602s-1.083-0.23-1.455-0.602v0c-0.372-0.372-0.602-0.89-0.602-1.455s0.23-1.078 0.602-1.455v0c0.372-0.372 0.884-0.602 1.455-0.602zM48.78 55.090h-0.005c-0.199-0.199-0.471-0.324-0.774-0.324s-0.581 0.126-0.774 0.324h-0.005c-0.199 0.194-0.319 0.471-0.319 0.774s0.12 0.581 0.319 0.78h0.005c0.194 0.199 0.471 0.319 0.774 0.319s0.576-0.12 0.774-0.319h0.005c0.194-0.199 0.319-0.476 0.319-0.78s-0.126-0.581-0.319-0.774z"></path>
</svg>
