<!-- Generated by IcoMoon.io -->
<svg version="1.1" xmlns="http://www.w3.org/2000/svg" width="96" height="96" viewBox="0 0 96 96">
<title>collars-bandhgala</title>
<path d="M77.98 40.507l-0.004 0.047-0.008 0.016c-1.991 8.548-22.712 18.49-29.972 18.008-1.268 0-2.959-0.261-4.894-0.747 0.055-0.822-1.141-7.77 3.381-9.243l0.423-0.118 0.004-0.004c0.122 0.016 0.241 0.028 0.359 0.039h0.004c0.126 0.008 0.249 0.020 0.367 0.024h0.004c0.118 0.004 0.237 0.008 0.352 0.008 0.482 0.028 1.023 0.004 1.616-0.067 6.924-0.833 17.475-6.98 22.428-11.289l0.118-0.103 0.004-0.004h0.004l0.004-0.004v-0.004l0.008-0.008c0.071-0.059 0.138-0.118 0.205-0.182h0.004l0.012-0.012 0.043-0.039 0.016-0.016c-10.827-2.982-20.125-3.859-28.171-3.539-7.987 0.32-14.745 1.821-20.544 3.61 5.917 5.202 15.8 10.061 21.658 11.328 0.063 0.012 0.126 0.028 0.186 0.039 0.087 0.016 0.166 0.032 0.249 0.047 0.067 0.016 0.134 0.028 0.201 0.039l0.075 0.012-0.055 0.020-0.036 0.008c-0.063 0.016-0.126 0.028-0.19 0.043l-0.036 0.008c-3.733 0.909-4.309 4.945-4.321 8.959-5.289-1.564-19.386-8.058-22.835-15.302-0.585-1.224-0.735-1.951-0.806-3.294-0.126-2.413 0.336-5.641 0.758-8.014-0.028-0.095-0.051-0.186-0.071-0.276-0.087-0.359-0.138-0.719-0.15-1.070h-0.004v-0.15l-0.004-0.004c0-2.382 3.551-4.148 8.259-5.431 7.9-2.149 19.189-3.053 21.626-3.053 2.603 0 13.544 0.897 21.239 3.026 4.641 1.284 8.141 3.061 8.141 5.459v0 0.059l0.004 0.079h-0.004c0.012 0.478-0.059 0.976-0.205 1.481 0.502 2.887 1.078 7.28 0.557 9.614zM69.231 24.739c-7.596-2.105-18.407-2.99-20.982-2.99-2.409 0-13.56 0.893-21.373 3.022-4.305 1.169-7.552 2.67-7.552 4.503v0 0.115h0.004c0.008 0.292 0.051 0.589 0.122 0.889 0.075 0.308 0.182 0.628 0.324 0.956v0l0.039 0.087h-0.004l0.047 0.099h-0.004l0.047 0.095c0.344 0.719 0.833 1.461 1.442 2.216 0.6 0.739 1.311 1.489 2.117 2.236 5.862-1.809 12.699-3.326 20.793-3.65 8.141-0.324 17.546 0.561 28.491 3.583l0.024-0.024 0.008-0.004 0.004-0.008 0.004-0.004 0.008-0.004 0.004-0.004v-0.004h0.004v-0.004l0.004-0.004h0.004l0.016-0.016v-0.004l0.008-0.004 0.028-0.028h0.004l0.004-0.004 0.004-0.008 0.004-0.004h0.004l0.008-0.008 0.004-0.008 0.004-0.004 0.008-0.004 0.004-0.008h0.004l0.004-0.008h0.004v-0.004h0.004l0.008-0.008v-0.004l0.008-0.004 0.024-0.024 0.071-0.067 0.146-0.146v-0.004l0.004-0.004h0.004l0.051-0.051 0.004-0.008 0.008-0.008 0.008-0.004 0.016-0.016 0.004-0.008 0.008-0.008h0.004l0.016-0.016 0.004-0.008v0.004l0.004-0.008 0.004-0.004h0.004l0.083-0.083 0.004-0.008 0.004-0.004 0.008-0.004 0.012-0.012v-0.004l0.036-0.036 0.008-0.004v-0.008l0.008-0.004 0.047-0.047v-0.004h0.004l0.004-0.008 0.008-0.004v-0.004l0.004-0.004 0.008-0.004 0.024-0.024 0.004-0.008 0.024-0.024v-0.004h0.004l0.051-0.051 0.004-0.008 0.008-0.008 0.095-0.099 0.020-0.020v-0.004l0.016-0.016 0.063-0.067 0.004-0.004v-0.004l0.012-0.012h0.004l0.134-0.15 0.071-0.079 0.075-0.083h0.004v-0.004l0.016-0.016 0.004-0.008 0.004-0.004v-0.004l0.059-0.067h0.004l0.032-0.039v0.004l0.008-0.008 0.043-0.055 0.091-0.103 0.107-0.13 0.111-0.13 0.095-0.122v0.004c0.028-0.036 0.020-0.028 0.122-0.158h0.004l0.118-0.158 0.032-0.043c0.047-0.063 0.087-0.115 0.115-0.146v-0.004c0.039-0.059 0.079-0.111 0.107-0.15v0l0.036-0.051c0.039-0.055 0.075-0.107 0.107-0.15 0.032-0.051 0.067-0.099 0.099-0.15v0l0.032-0.047c0.051-0.079 0.083-0.13 0.099-0.154 0.047-0.075 0.079-0.122 0.095-0.15l0.016-0.028h-0.004c0.043-0.071 0.075-0.122 0.095-0.158v0c0.012-0.020 0.039-0.067 0.087-0.154l0.004-0.008c0.265-0.478 0.466-0.944 0.596-1.39 0.119-0.423 0.178-0.83 0.17-1.217v-0.020h0.004l-0.004-0.039-0.004-0.075v-0.020c0-1.852-3.2-3.361-7.438-4.535zM47.834 52.89c-0.608 0-1.098 0.49-1.098 1.098 0 0.604 0.49 1.098 1.098 1.098 0.604 0 1.098-0.494 1.098-1.098 0-0.608-0.494-1.098-1.098-1.098zM48.371 51.954c-0.34-0.071-0.853-0.063-1.181 0.028-0.881 0.241-1.529 1.047-1.529 2.007 0 0.976 0.675 1.797 1.58 2.018 0.352 0.087 0.893 0.083 1.24-0.012 0.881-0.241 1.533-1.047 1.533-2.007 0-0.999-0.707-1.833-1.643-2.034z"></path>
</svg>
