<!-- Generated by IcoMoon.io -->
<svg version="1.1" xmlns="http://www.w3.org/2000/svg" width="96" height="96" viewBox="0 0 96 96">
<title>collars-the-hipster</title>
<path d="M56.497 55.766c-0.703-1.576-1.632-3.264-2.814-4.811-1.041-1.379-2.251-2.645-3.714-3.658-0.675 0.084-1.322 0.141-1.97 0.112-0.675 0-1.351-0.084-2.054-0.197-1.069 0.732-2.42 1.913-3.77 3.686-0.985 1.294-1.941 2.926-2.814 4.98 2.814 0.675 5.684 1.013 8.582 1.013 2.87-0.028 5.74-0.394 8.553-1.125zM77.318 29.515l1.463 10.495c0 0 0.253 0.816-0.506 1.773s-12.83 12.070-19.639 18.739c0 0-0.394-1.688-1.322-3.995 0 0.028-0.028 0.028-0.056 0.028-3.039 0.844-6.19 1.266-9.313 1.294-3.151 0-6.274-0.394-9.341-1.182-0.028 0-0.056 0-0.084 0-0.816 2.11-1.154 3.658-1.154 3.658-6.809-6.668-18.879-17.782-19.639-18.739s-0.506-1.801-0.506-1.801l1.435-10.354c-0.197-0.591-0.309-1.182-0.309-1.744 0-6.105 25.998-6.893 29.88-6.893 2.617 0 13.73 0.309 21.44 1.998 4.53 1.013 7.934 2.56 7.934 4.896v0c0.028 0.591-0.056 1.182-0.281 1.829zM50.392 46.396c5.88-1.154 15.728-5.937 21.58-11.086-3.883-0.591-7.906-1.069-11.536-1.379-5.543-0.506-10.213-0.732-11.986-0.732-1.744 0-6.443 0.253-12.183 0.788-3.686 0.338-7.822 0.844-11.873 1.463 5.852 5.036 15.334 9.679 21.186 10.86v0c0.113-0.056 0.225-0.084 0.338-0.084 0.732 0.141 1.407 0.225 2.082 0.225 0.675 0.028 1.351-0.028 2.054-0.141 0.141 0 0.253 0.028 0.338 0.084zM47.719 51.039c0.563 0 1.069 0.225 1.435 0.619v0c0.394 0.366 0.619 0.872 0.619 1.435s-0.225 1.097-0.619 1.463v0c-0.366 0.366-0.872 0.591-1.435 0.591s-1.097-0.225-1.463-0.591v0c-0.366-0.366-0.591-0.9-0.591-1.463s0.225-1.069 0.591-1.435v0c0.366-0.394 0.872-0.619 1.463-0.619zM48.478 52.333v0c-0.197-0.197-0.478-0.338-0.76-0.338-0.309 0-0.591 0.141-0.788 0.338v0c-0.197 0.197-0.309 0.478-0.309 0.76 0 0.309 0.113 0.591 0.309 0.788v0c0.197 0.197 0.478 0.309 0.788 0.309 0.281 0 0.563-0.112 0.76-0.309v0c0.197-0.197 0.338-0.478 0.338-0.788 0-0.281-0.141-0.563-0.338-0.76zM69.468 23.719c-7.625-1.688-18.654-1.97-21.243-1.97-3.77 0-28.924 0.675-28.924 5.937 0 0.985 0.422 2.054 1.154 3.179 0.788 1.21 1.941 2.476 3.348 3.714 4.22-0.675 8.525-1.182 12.38-1.547 5.796-0.535 10.523-0.788 12.267-0.788 1.773 0 6.443 0.225 12.070 0.732 3.77 0.338 7.934 0.816 11.93 1.435 1.379-1.238 2.476-2.476 3.207-3.658 0.675-1.097 1.041-2.138 0.985-3.039v-0.028c0-1.773-3.067-3.039-7.175-3.967z"></path>
</svg>
