<!-- Generated by IcoMoon.io -->
<svg version="1.1" xmlns="http://www.w3.org/2000/svg" width="96" height="96" viewBox="0 0 96 96">
<title>collars-hipster-rounded</title>
<path d="M38.497 55.216c2.975 0.85 6.052 1.275 9.108 1.295 3.097 0.041 6.194-0.324 9.209-1.113-0.283-0.425-0.567-0.85-0.87-1.295-1.477-2.247-3.137-4.777-5.89-6.7-0.708 0.081-1.376 0.121-2.024 0.101-0.668 0-1.336-0.081-2.004-0.202-2.571 1.963-3.987 3.684-5.586 5.607-0.587 0.729-1.235 1.498-1.943 2.307zM47.626 49.933c0.567 0 1.093 0.223 1.457 0.607v0c0.385 0.364 0.607 0.891 0.607 1.457s-0.223 1.073-0.607 1.457v0c-0.364 0.364-0.891 0.587-1.457 0.587s-1.073-0.223-1.457-0.587v0c-0.364-0.385-0.587-0.891-0.587-1.457s0.223-1.093 0.587-1.457v0c0.385-0.385 0.891-0.607 1.457-0.607zM48.415 51.208v0c-0.202-0.182-0.486-0.324-0.789-0.324s-0.567 0.142-0.769 0.324v0c-0.202 0.202-0.324 0.486-0.324 0.789s0.121 0.567 0.324 0.769v0c0.202 0.202 0.466 0.324 0.769 0.324s0.587-0.121 0.789-0.324v0c0.182-0.202 0.304-0.466 0.304-0.769s-0.121-0.587-0.304-0.789zM77.338 29.51l1.437 10.505c0 0 0.263 0.83-0.486 1.781-13.5 18.297-17.164 18.479-20.402 14.269-0.041 0.041-0.101 0.061-0.162 0.081-3.299 0.931-6.72 1.356-10.12 1.336-3.421-0.041-6.821-0.546-10.12-1.559v0c-0.061-0.020-0.121-0.041-0.182-0.101v0c-3.542 3.583-7.57 2.773-19.572-14.229-0.769-0.951-0.506-1.781-0.506-1.781l1.437-10.363c-0.202-0.607-0.324-1.194-0.324-1.781 0-6.092 26.009-6.882 29.895-6.882 2.611 0 13.743 0.304 21.435 2.004 4.554 1.012 7.934 2.55 7.934 4.878v0c0.041 0.607-0.061 1.214-0.263 1.842zM50.277 46.431c5.829-1.093 15.727-5.89 21.637-11.051-4.068-0.627-8.096-1.113-11.658-1.457-5.242-0.486-9.472-0.708-11.294-0.708-1.781 0-6.416 0.243-12.164 0.81-3.765 0.364-8.015 0.891-12.245 1.559 5.951 5.080 15.524 9.715 21.192 10.768 0.081-0.020 0.162-0.041 0.243-0.020 0.708 0.142 1.397 0.202 2.065 0.223s1.316-0.020 2.024-0.121v0 0c0.081-0.020 0.142-0.020 0.202 0zM69.465 23.742c-7.59-1.7-18.621-1.984-21.232-1.984-3.765 0-28.923 0.668-28.923 5.91 0 1.032 0.425 2.125 1.174 3.259 0.83 1.235 2.024 2.53 3.481 3.785 4.392-0.708 8.825-1.255 12.731-1.64 5.809-0.567 10.485-0.81 12.266-0.81 1.822 0 6.092 0.202 11.375 0.708 3.684 0.364 7.853 0.85 12.043 1.518 1.397-1.255 2.53-2.51 3.279-3.704 0.688-1.113 1.053-2.145 0.992-3.077v-0.041c0-1.741-3.077-3.016-7.185-3.927z"></path>
</svg>
