<!-- Generated by IcoMoon.io -->
<svg version="1.1" xmlns="http://www.w3.org/2000/svg" width="96" height="96" viewBox="0 0 96 96">
<title>collars-the-prepster</title>
<path d="M56.61 55.766c-0.675-1.547-1.604-3.179-2.785-4.727-1.013-1.351-2.279-2.589-3.742-3.63-0.675 0.084-1.351 0.141-1.998 0.113-0.647 0-1.294-0.084-1.998-0.197-1.688 1.379-2.954 2.589-3.995 3.939-1.013 1.294-1.829 2.729-2.617 4.614 2.814 0.675 5.684 1.013 8.582 1.013 2.87-0.028 5.74-0.394 8.553-1.125zM47.831 51.039c0.563 0 1.069 0.225 1.463 0.619v0c0.366 0.366 0.591 0.872 0.591 1.435s-0.225 1.097-0.591 1.463v0c-0.394 0.366-0.9 0.591-1.463 0.591s-1.097-0.225-1.463-0.591v0c-0.366-0.366-0.591-0.9-0.591-1.463s0.225-1.069 0.591-1.435v0c0.366-0.394 0.9-0.619 1.463-0.619zM48.619 52.333h-0.028c-0.197-0.197-0.45-0.338-0.76-0.338s-0.591 0.141-0.788 0.338v0c-0.197 0.197-0.309 0.478-0.309 0.76 0 0.309 0.113 0.591 0.309 0.788v0c0.197 0.197 0.478 0.309 0.788 0.309s0.563-0.112 0.76-0.309h0.028c0.197-0.197 0.309-0.478 0.309-0.788 0-0.281-0.113-0.563-0.309-0.76zM78.893 40.009c0 0 0.253 0.816-0.506 1.773-0.647 0.816-9.313 8.835-16.094 15.334 0.056-0.141 0.084-0.281 0.084-0.45 0-0.647-0.506-1.154-1.154-1.154-0.619 0-1.125 0.506-1.125 1.154 0 0.619 0.506 1.125 1.125 1.125 0.169 0 0.281-0.028 0.422-0.056-1.041 0.985-2.026 1.913-2.898 2.785 0 0-0.394-1.688-1.294-3.995-0.028 0.028-0.056 0.028-0.056 0.028-3.067 0.844-6.19 1.266-9.341 1.294-3.151 0-6.274-0.394-9.341-1.182-0.028 0-0.028 0-0.056 0-0.816 2.11-1.182 3.658-1.182 3.658-0.788-0.788-1.688-1.632-2.617-2.532 0.056 0 0.084 0 0.141 0 0.619 0 1.125-0.506 1.125-1.125 0-0.647-0.506-1.154-1.125-1.154-0.647 0-1.154 0.506-1.154 1.154 0 0.056 0 0.113 0.028 0.169-6.781-6.499-15.39-14.462-16.038-15.25-0.76-0.957-0.506-1.801-0.506-1.801 0.647-4.53 1.125-7.569 1.125-12.098 0-6.105 25.998-6.893 29.88-6.893 2.617 0 13.73 0.309 21.44 1.998 4.53 1.013 7.934 2.56 7.934 4.896v0c0.253 4.446 0.535 7.765 1.182 12.324zM50.335 46.424c5.852-1.069 15.841-5.909 21.749-11.114-3.883-0.591-7.906-1.069-11.536-1.379-5.543-0.506-10.185-0.732-11.986-0.732-1.744 0-6.443 0.253-12.183 0.788-3.686 0.338-7.822 0.844-11.873 1.463 5.909 5.093 15.531 9.763 21.383 10.889 0.028 0 0.112 0 0.169 0 0.703 0.141 1.379 0.225 2.054 0.225 0.675 0.028 1.351-0.028 2.054-0.141 0.056 0 0.113 0 0.169 0zM69.58 23.719c-7.597-1.688-18.626-1.97-21.243-1.97-3.742 0-28.924 0.675-28.924 5.937 0 0.985 0.422 2.054 1.154 3.179 0.788 1.21 1.941 2.476 3.348 3.714 4.22-0.675 8.525-1.182 12.38-1.547 5.796-0.535 10.523-0.788 12.267-0.788 1.801 0 6.471 0.225 12.070 0.732 3.77 0.338 7.934 0.816 11.93 1.435 1.379-1.238 2.476-2.476 3.207-3.658 0.675-1.097 1.041-2.138 0.985-3.039v-0.028c0-1.773-3.067-3.039-7.175-3.967z"></path>
</svg>
