<!-- Generated by IcoMoon.io -->
<svg version="1.1" xmlns="http://www.w3.org/2000/svg" width="96" height="96" viewBox="0 0 96 96">
<title>collars-evil-pandit</title>
<path d="M77.992 41.917l-0.008 0.043-0.008 0.020c-1.991 8.548-22.712 18.486-29.972 18.008-1.264 0-2.959-0.261-4.894-0.75 0.059-0.822-1.142-7.766 3.381-9.239l0.427-0.122c0.122 0.016 0.241 0.028 0.359 0.036h0.004c0.126 0.012 0.249 0.020 0.371 0.028v0c0.122 0.004 0.241 0.008 0.352 0.008 0.486 0.028 1.027 0.004 1.615-0.067 4.226-0.51 9.804-2.998 14.631-5.838-2.935 1.469-6.454 3.034-7.517 3.527l0.356-4.862c4.199-1.959 7.489-3.729 10.049-5.325-6.94-1.868-13.055-2.753-19.126-2.714-6.063 0.039-12.091 0.999-18.853 2.816 2.536 1.572 5.775 3.31 9.879 5.222l0.344 4.716c-1.134-0.529-5.080-2.283-8.117-3.828 4.965 2.915 10.385 5.206 14.149 6.020 0.059 0.016 0.122 0.032 0.186 0.043 0.083 0.016 0.166 0.032 0.249 0.047 0.067 0.012 0.134 0.028 0.198 0.039l0.075 0.012-0.051 0.020-0.039 0.008c-0.063 0.012-0.126 0.028-0.186 0.039l-0.039 0.008v0.004c-3.733 0.909-4.305 4.941-4.321 8.955-5.285-1.564-19.386-8.054-22.835-15.298-0.581-1.224-0.735-1.951-0.802-3.298-0.043-0.77-0.024-1.623 0.036-2.504l0.004-0.020c0.166-3.041 0.711-6.62 1.181-8.054 0.261-0.81 0.754-1.556 1.446-2.248 0.178-0.423 0.462-0.83 0.861-1.221v0 0l0.063-0.051c4.87-3.496 15.101-5.238 25.489-5.301 10.61-0.067 21.425 1.615 26.891 4.961 0.679 0.415 1.181 0.841 1.517 1.303 0.182 0.253 0.316 0.513 0.403 0.786 0.482 0.486 0.861 0.991 1.094 1.556v0.004c0.012 0.032 0.024 0.067 0.032 0.103 0.079 0.261 0.288 1.007 0.545 2.354 0.008 0.047 0.016 0.099 0.024 0.146 0.115 0.731 0.241 1.6 0.352 2.524v0c0.359 2.603 0.604 5.593 0.209 7.383zM48.008 33.713c6.217-0.039 12.478 0.873 19.588 2.8 0.912-0.593 2.674-1.785 4.242-3.203 1.623-1.469 3.049-3.176 3.061-4.649 0.004-0.371-0.107-0.711-0.344-1.035-0.261-0.359-0.668-0.703-1.236-1.051-5.317-3.255-15.938-4.89-26.39-4.823-10.191 0.063-20.188 1.738-24.905 5.099-1.493 1.473-0.624 3.397 0.972 5.178 1.671 1.868 4.12 3.583 5.692 4.59 6.932-1.872 13.102-2.864 19.319-2.907zM64.25 44.042v0 0zM31.252 43.588c-1.667-0.98-1.714-1.007 0 0zM47.842 54.3c-0.604 0-1.098 0.49-1.098 1.098 0 0.604 0.494 1.098 1.098 1.098 0.608 0 1.098-0.494 1.098-1.098 0-0.608-0.49-1.098-1.098-1.098zM48.379 53.364c-0.34-0.075-0.853-0.063-1.177 0.028-0.881 0.241-1.529 1.047-1.529 2.007 0 0.976 0.672 1.793 1.58 2.018 0.352 0.087 0.893 0.083 1.236-0.012 0.885-0.241 1.533-1.051 1.533-2.007 0-0.999-0.703-1.837-1.643-2.034z"></path>
</svg>
