<?xml version="1.0" encoding="UTF-8"?>
<svg width="48px" height="50px" viewBox="0 0 48 50" version="1.1" xmlns="http://www.w3.org/2000/svg" xmlns:xlink="http://www.w3.org/1999/xlink">
    <!-- Generator: Sketch 52 (66869) - http://www.bohemiancoding.com/sketch -->
    <title>1</title>
    <desc>Created with Sketch.</desc>
    <g id="Page-1" stroke="none" stroke-width="1" fill="none" fill-rule="evenodd">
        <path d="M45.6470292,11.4486356 L45.6470292,12.7720384 L44.3142839,12.7720384 L44.3142839,11.4486356 L45.6470292,11.4486356 Z M42.9024006,11.4486356 L42.9024006,12.7720384 L41.4905173,12.7720384 L41.4905173,11.4486356 L42.9024006,11.4486356 Z M40.0791381,11.4486356 L40.0791381,12.7720384 L38.7453847,12.7720384 L38.7453847,11.4486356 L40.0791381,11.4486356 Z M37.2553714,11.4486356 L37.2553714,12.7720384 L35.921618,12.7720384 L35.921618,11.4486356 L37.2553714,11.4486356 Z M34.5102388,11.4486356 L34.5102388,12.7720384 L33.0983555,12.7720384 L33.0983555,11.4486356 L34.5102388,11.4486356 Z M31.6864722,11.4486356 L31.6864722,12.7720384 L30.3532229,12.7720384 L30.3532229,11.4486356 L31.6864722,11.4486356 Z M28.9413396,11.4486356 L28.9413396,12.7720384 L27.4513263,12.7720384 L27.4513263,11.4486356 L28.9413396,11.4486356 Z M26.1175729,11.4486356 L26.1175729,12.7720384 L24.7056896,12.7720384 L24.7056896,11.4486356 L26.1175729,11.4486356 Z M23.2943104,11.4486356 L23.2943104,12.7720384 L21.8824271,12.7720384 L21.8824271,11.4486356 L23.2943104,11.4486356 Z M20.5491777,11.4486356 L20.5491777,12.7720384 L19.0586604,12.7720384 L19.0586604,11.4486356 L20.5491777,11.4486356 Z M17.7259152,11.4486356 L17.7259152,12.7720384 L16.3140319,12.7720384 L16.3140319,11.4486356 L17.7259152,11.4486356 Z M14.9021486,11.4486356 L14.9021486,12.7720384 L13.4902653,12.7720384 L13.4902653,11.4486356 L14.9021486,11.4486356 Z M12.1570159,11.4486356 L12.1570159,12.7720384 L10.7451326,12.7720384 L10.7451326,11.4486356 L12.1570159,11.4486356 Z M9.33324932,11.4486356 L9.33324932,12.7720384 L7.92187008,12.7720384 L7.92187008,11.4486356 L9.33324932,11.4486356 Z M6.58811669,11.4486356 L6.58811669,12.7720384 L5.09810346,12.7720384 L5.09810346,11.4486356 L6.58811669,11.4486356 Z M3.76485414,11.4486356 L3.76485414,12.7720384 L2.35297083,12.7720384 L2.35297083,11.4486356 L3.76485414,11.4486356 Z M2.11757293,2.10272889 L2.11757293,39.8752678 L10.2748409,47.8972711 L37.8042971,47.8972711 L45.8824271,39.8752678 L45.8824271,2.10272889 L2.11757293,2.10272889 Z M48,0 L48,40.8097583 L38.7453847,50 L9.33324932,50 L9.0197215,49.6881695 L0.392161805,41.1215889 L0,40.8097583 L0,0 L48,0 Z" id="1" fill="#000000"></path>
    </g>
</svg>